<svg width="1024" height="1290" viewBox="0 0 1024 1290" fill="none" xmlns="http://www.w3.org/2000/svg">
<path d="M435.333 6.53314C414.4 19.0665 363.067 49.0665 354.667 53.7331C349.867 56.2665 332.533 66.2665 316 75.9998C299.467 85.7331 283.333 95.1998 280 97.0665C276.667 98.9331 271.867 101.733 269.333 103.333C266.8 104.933 259.867 108.8 254 112C248.133 115.2 237.6 121.2 230.667 125.333C223.733 129.466 211.467 136.666 203.333 141.333C195.333 146 184.533 152.266 179.333 155.333C174.267 158.533 162.4 165.2 153.2 170.4C144 175.6 132.533 182.133 127.867 184.933C119.067 190.4 71.0667 218.266 59.3333 224.8C55.7333 226.8 42.5333 234.4 30 241.733C17.6 249.066 5.73333 256 3.73333 257.2L0 259.333L0.4 472.666L0.666667 686L285.067 686.4L569.333 686.666V903.333C569.333 1022.53 569.067 1120 568.667 1120C568.4 1120 558.267 1114.53 546.4 1107.73C534.4 1101.07 522 1094.13 518.667 1092.27C515.333 1090.4 512.133 1088.53 511.333 1088C510.133 1087.07 488 1074.8 464 1061.73C460 1059.6 449.467 1053.6 440.667 1048.67C405.6 1028.67 387.067 1018.13 382.667 1015.6C380.133 1014.13 375.6 1011.73 372.667 1010.27C367.6 1007.73 326.533 984.533 293.333 965.6C284.933 960.8 275.6 955.733 272.667 954.266C269.733 952.8 252 942.933 233.333 932.266C214.667 921.733 196.4 911.333 192.667 909.333C189.067 907.2 183.6 904.266 180.667 902.533C177.733 900.933 171.733 897.6 167.333 895.2C162.933 892.8 155.733 888.933 151.333 886.4L143.333 881.866L142.933 839.6L142.667 797.333H71.3333H0V877.733V958.266L21.0667 970.666C76.1333 1003.33 83.8667 1007.87 91.3333 1012C95.7333 1014.4 108 1021.6 118.667 1028C134 1037.2 162.933 1054.27 177.333 1062.67C186.4 1068 220.533 1087.73 225.333 1090.4C228.667 1092.27 232.8 1094.8 234.667 1096C236.533 1097.33 246.133 1102.93 256 1108.67C284.933 1125.47 324.4 1148.67 346.667 1162C358 1168.8 370 1175.73 373.333 1177.33C376.667 1179.07 389.6 1186.53 402 1193.87C414.533 1201.33 433.6 1212.8 444.533 1219.47C455.467 1226 465.067 1231.6 465.867 1231.87C466.667 1232.13 477.6 1238.4 490 1245.73C502.533 1253.07 517.733 1262.13 524 1265.73C530.267 1269.33 541.733 1276.13 549.467 1280.8C570.533 1293.47 569.067 1293.6 604.267 1271.2C619.867 1261.2 643.2 1246.4 656 1238.4C683.6 1221.2 703.6 1208.4 708.533 1204.67L712.133 1202L713.067 1049.33C714.533 811.066 714.133 558.666 712.267 554.266L710.667 550.666H426.667C270.533 550.666 142.667 550.266 142.667 549.6C142.533 506.266 142.667 323.466 142.933 323.333C143.2 323.2 159.867 314.666 180 304.266C200.133 294 229.6 279.066 245.333 270.933C261.067 262.933 290.267 248.133 310 238C397.867 193.2 444.267 169.333 445.733 168.133C446.267 167.6 446.533 129.6 446.4 83.7331L446 0.133136L435.333 6.53314Z" fill="#C50202"/>
<path d="M742.667 127.467C714.533 132.533 699.6 137.333 681.333 146.933C642.933 167.2 618.8 191.067 598.533 228.533C577.067 268.267 571.467 319.067 583.467 364.667C592.267 398.267 612.533 431.733 638.4 455.2C669.067 482.933 705.067 499.6 743.333 504C763.733 506.267 770.267 505.867 774 502C778.4 497.733 778.4 491.6 774 487.467C771.2 484.8 768.8 484.267 756.267 483.6C734.933 482.4 708.933 475.333 690.4 465.867C682.8 462 664 449.2 656 442.533C631.867 422.533 610.4 386 602.4 351.733C598.133 333.867 598.267 296.8 602.533 279.467C617.2 219.733 657.2 175.467 713.733 156.667C794.533 129.867 883.2 167.733 918.533 244.4C927.333 263.067 933.067 283.733 933.733 298.667L934 304.667H855.333H776.667L776 270.533C775.333 234.133 775.067 233.067 768.4 230.533C764.667 229.2 757.733 231.467 756 234.667C755.2 236.133 754.667 252 754.667 272.4V307.467L745.333 318.8C740.133 324.933 733.333 332.933 730.267 336.667C699.067 373.333 685.333 390 685.333 391.2C685.467 392.933 699.067 404 700.8 403.867C702.133 403.733 710.4 394.133 732.933 366.667C741.067 356.8 751.867 343.867 756.933 338L766.133 327.333L858.133 326.667C956.8 326 953.467 326.267 956 319.333C957.6 314.933 954.8 287.067 951.333 272.133C940.933 228.8 914.8 189.333 879.867 164.133C856.267 146.933 832.267 136 805.333 130C795.6 127.867 750.667 126 742.667 127.467Z" fill="black"/>
<path d="M1003.33 322.666C982.4 330.133 963.467 339.733 944.133 352.666C907.467 377.066 878.667 403.333 840.933 446.933C832.8 456.4 825.733 464 825.2 464C824.533 464 821.067 460.667 817.2 456.666C802 440.666 776 427.333 761.6 428.266C751.6 428.933 752.4 432.266 765.2 443.733C775.333 452.933 786.8 466.8 793.2 478C801.067 491.467 809.467 508.267 813.333 518.267C817.467 529.333 821.867 534.667 826.8 534.667C831.2 534.667 835.867 528.8 844.133 512.667C866.933 468.533 900.533 422 932.533 389.866C962.667 359.866 982.533 344.4 1010.53 329.333C1019.6 324.4 1024 321.2 1024 319.6C1024 316.133 1019.87 316.8 1003.33 322.666Z" fill="black"/>
<path d="M734.667 876.666C734.667 1055.2 735.067 1201.33 735.467 1201.33C736 1201.33 751.067 1195.73 769.2 1188.93C787.2 1182 807.467 1174.53 814 1172.13C820.667 1169.6 834.4 1164.4 844.667 1160.4C854.933 1156.4 866.533 1151.87 870.4 1150.4L877.333 1147.87V849.866C877.333 686 877.067 552 876.667 552C876.267 552 873.333 554.133 870 556.666C859.6 564.533 843.067 571.866 829.333 574.666C807.733 579.066 787.467 577.6 767.2 570C757.333 566.266 741.6 557.466 738.667 554.133C737.733 552.933 736.533 552 735.867 552C735.2 552 734.667 691.333 734.667 876.666Z" fill="black"/>
</svg>
